<?xml version="1.0" encoding="UTF-8"?>
<svg width="115px" height="113px" viewBox="0 0 115 113" version="1.1" xmlns="http://www.w3.org/2000/svg" xmlns:xlink="http://www.w3.org/1999/xlink">
    <!-- Generator: Sketch 52.2 (67145) - http://www.bohemiancoding.com/sketch -->
    <title>Fill 14</title>
    <desc>Created with Sketch.</desc>
    <g id="Page-1" stroke="none" stroke-width="1" fill="none" fill-rule="evenodd">
        <g id="Desktop-HD" transform="translate(-907.000000, -581.000000)" fill="#403131" stroke="#000000" stroke-width="0.775678407">
            <path d="M969.784967,673.355736 C970.284429,676.385547 971.498129,679.141344 973.266038,681.693589 C974.596813,683.614818 976.352088,685.162605 978.435845,686.38001 C979.467616,686.982057 980.55245,687.482329 981.782154,687.62873 C987.015973,688.255048 991.698952,687.081485 995.636529,683.773746 C999.783829,680.288289 1001.81537,675.654321 1003.47378,670.844986 C1003.66834,667.97332 1004.12148,665.091476 1003.99767,662.232336 C1003.80563,657.841067 1002.80587,653.538266 1001.14156,649.407701 C999.299528,644.8348 997.373274,640.293215 994.688984,636.066354 C994.006751,634.99222 993.479495,633.831967 992.906756,632.699115 C991.295508,629.518987 989.388626,626.495439 987.186952,623.642563 C986.411228,622.638106 985.791323,621.489596 984.61384,620.790469 C983.158411,621.513083 983.158411,623.060087 982.413008,624.184327 C981.779627,625.140245 981.301222,626.185412 980.752909,627.189869 C978.676732,630.988485 976.737844,634.837989 975.360745,638.916099 C974.070399,642.736636 972.800267,646.563437 971.389477,650.346395 C969.598827,655.148685 969.118738,660.109903 969.031142,665.133752 C968.943547,667.902076 969.334357,670.62734 969.784967,673.355736 Z M963.927351,657.143685 C964.107012,655.539393 964.361104,653.914852 964.84961,652.368968 C966.890899,645.911303 968.945021,639.450522 971.566358,633.164967 C972.680255,630.494521 974.149196,627.947123 975.461575,625.345989 C976.714923,622.858557 977.90154,620.339195 979.260973,617.900827 C980.031804,616.51693 980.020682,615.446883 978.92304,614.172016 C976.225561,611.038973 973.777897,607.737713 970.625277,604.926308 C968.677241,603.188844 966.974741,601.219303 965.200376,599.322967 C962.888741,596.851889 960.363223,594.575508 957.713654,592.412049 C953.132303,588.670778 948.532131,584.948975 943.932814,581.226394 C943.844695,581.154746 943.57777,581.118143 943.554671,581.153189 C943.43062,581.33776 943.234704,581.588528 943.291169,581.748957 C943.499917,582.337717 943.770264,582.912459 944.068843,583.469288 C944.97228,585.145229 945.968115,586.783008 946.801399,588.486206 C947.855409,590.644213 948.835843,592.83415 949.740136,595.046671 C950.013905,595.717203 949.999361,596.508446 949.998505,597.244396 C949.996794,597.935176 949.114745,598.592469 948.314827,598.619726 C947.623561,598.642311 946.923739,598.263822 946.675636,597.705435 C946.523352,597.361213 946.412133,597.001416 946.279527,596.648627 C945.922772,595.707079 945.65328,594.730485 945.193862,593.832549 C942.307312,588.19572 939.6124,582.467774 935.878021,577.225009 C935.581153,576.807581 935.256908,576.402614 934.999395,575.965717 C934.193487,574.598954 935.21841,573.111479 936.972241,573.144967 C937.784993,573.159763 938.619132,573.229075 939.402795,573.415204 C941.253302,573.855995 943.096964,574.333389 944.912393,574.880873 C949.842799,576.368348 954.769783,577.868283 959.672812,579.428185 C961.864674,580.125196 964.002638,580.962387 966.151723,581.766869 C966.647929,581.952998 967.102214,582.245042 967.547089,582.526961 C968.013351,582.82212 968.198145,583.688126 967.958597,584.23561 C967.709639,584.804122 966.984151,585.225443 966.378438,585.258152 C965.221764,585.320455 964.252452,584.81191 963.261751,584.424076 C959.61207,582.996567 955.830637,581.929635 952.029528,580.910987 C951.843879,580.861145 951.574387,581.034814 951.363072,581.136834 C951.333984,581.150852 951.386171,581.391496 951.46488,581.47872 C951.722394,581.764533 951.986752,582.051904 952.290464,582.296442 C953.006541,582.874298 953.745716,583.42957 954.477193,583.991851 C955.941,585.116414 957.399675,586.246427 958.871183,587.362423 C963.508998,590.879405 967.733594,594.771761 971.652766,598.946815 C972.630634,599.987268 973.596525,601.045634 974.667645,602.003537 C976.821864,603.93336 978.713436,606.053206 980.488655,608.271958 C981.207299,609.172231 982.031172,610.001635 982.828524,610.848171 C983.056094,611.089594 983.334996,611.057664 983.530912,610.809232 C983.927021,610.308475 984.375318,609.829524 984.691863,609.289048 C987.711875,604.111701 991.302525,599.257549 994.810188,594.354333 C997.279241,590.902769 999.967309,587.615527 1003.1071,584.636683 C1004.33563,583.470067 1005.42643,582.183518 1006.62588,580.990423 C1007.17256,580.446833 1007.81079,579.971775 1008.45329,579.520081 C1008.61926,579.403264 1009.07697,579.388467 1009.19417,579.503727 C1009.44741,579.747486 1009.79561,580.183604 1009.70578,580.408672 C1008.8109,582.637548 1007.54472,584.693535 1006.11428,586.681767 C1001.91791,592.513291 997.68305,598.324567 993.643249,604.244094 C991.335891,607.623232 989.380154,611.20096 987.262723,614.68757 C986.820416,615.415732 986.879447,616.116636 987.385064,616.789504 C987.924902,617.509099 988.460462,618.233367 989.039654,618.926484 C992.449788,623.004968 995.285862,627.381727 997.661662,632.035732 C999.387261,635.417206 1001.55688,638.601649 1003.08999,642.079692 C1004.97471,646.358324 1006.80383,650.633062 1007.79453,655.186604 C1008.43703,658.141305 1008.72706,661.093671 1008.65861,664.090426 C1008.63637,665.08571 1008.56365,666.081773 1008.54483,667.077058 C1008.40196,674.431102 1004.99525,680.607627 999.738028,685.889331 C995.180632,690.467795 989.182527,692.412415 982.377661,692.11492 C979.435501,691.986421 976.766255,691.087706 974.362222,689.537149 C969.204246,686.209411 966.181666,681.59123 964.675082,676.098476 C963.607384,672.20612 963.585996,668.203956 963.364414,664.690868 C963.566318,661.864665 963.664704,659.496387 963.927351,657.143685 Z" id="Fill-14" transform="translate(972.220233, 632.644411) rotate(-119.000000) translate(-972.220233, -632.644411) "></path>
        </g>
    </g>
</svg>