<?xml version="1.0" encoding="UTF-8"?>
<svg width="44px" height="21px" viewBox="0 0 44 21" version="1.1" xmlns="http://www.w3.org/2000/svg" xmlns:xlink="http://www.w3.org/1999/xlink">
    <!-- Generator: Sketch 52.2 (67145) - http://www.bohemiancoding.com/sketch -->
    <title>FIll 104</title>
    <desc>Created with Sketch.</desc>
    <g id="Page-1" stroke="none" stroke-width="1" fill="none" fill-rule="evenodd">
        <g id="Desktop-HD" transform="translate(-318.000000, -41.000000)" fill="#453737">
            <g id="top-logo" transform="translate(140.000000, -61.000000)">
                <path d="M209.049116,99.1219065 C208.807696,99.0965436 208.595611,99.3456969 208.623745,99.5593421 C208.648512,99.7461324 208.672317,99.9379954 208.728104,100.112253 C208.841119,100.466737 208.968562,100.814955 209.102738,101.157802 C210.022252,103.504915 210.439447,106.026287 210.718139,108.582569 C210.926135,110.490457 210.785227,112.395659 210.430069,114.266546 C210.245397,115.239885 210.023694,116.205764 209.767366,117.154039 C209.323239,118.797854 208.575893,120.253386 207.766751,121.644467 C206.703924,123.472088 205.387654,125.004903 203.975922,126.422242 C202.473537,127.930291 200.831445,129.172775 199.137655,130.290533 C197.648736,131.273122 196.116294,132.17067 194.528546,132.902912 C194.279912,133.017792 194.044263,133.178921 193.808854,133.333187 C193.704495,133.401816 193.657124,133.717509 193.738399,133.85238 C193.801881,133.957114 193.898304,134.059461 193.996171,134.097058 C194.098606,134.136147 194.225809,134.120929 194.332813,134.085719 C194.554997,134.012018 194.776699,133.925784 194.988543,133.815679 C196.867486,132.840848 198.744265,131.858259 200.502739,130.570719 C201.329916,129.964993 202.159257,129.358372 202.954213,128.690581 C203.653226,128.103355 204.326991,127.46242 204.974065,126.789258 C206.332656,125.375201 207.589052,123.827467 208.617252,122.027596 C209.921019,119.744636 210.81336,117.229531 211.271915,114.479893 C211.483037,113.21503 211.579942,111.935247 211.67829,110.653675 C211.755717,109.642142 211.578259,108.654182 211.46885,107.666819 C211.168277,104.958359 210.56689,102.352544 209.578846,99.8971163 C209.493724,99.6852614 209.406197,99.4692291 209.289334,99.2854227 M194.427312,138.120112 C195.352886,138.038467 196.27846,137.95212 197.204866,137.875178 C198.065575,137.803792 198.927116,137.747368 199.787826,137.6747 C203.259769,137.38018 206.62693,136.682567 209.708019,134.909467 C209.994923,134.744896 210.265194,134.546555 210.530059,134.345222 C210.708438,134.209717 210.750434,133.802776 210.625278,133.595031 C210.477252,133.350097 210.267273,133.16629 209.979122,133.217157 C209.723404,133.262468 209.460618,133.350525 209.234421,133.4809 C206.272251,135.188171 203.038562,135.892196 199.70217,136.176028 C196.788649,136.423955 193.870969,136.693681 190.947468,136.299564 C190.688008,136.264512 190.426053,136.202531 190.183641,136.104215 C190.098401,136.070019 189.994867,135.854152 190.027299,135.782766 C190.165761,135.478843 190.342893,135.19159 190.522935,134.910322 C193.222319,130.690875 196.117129,126.599665 198.406117,122.112628 C198.871815,121.199148 199.298427,120.279257 199.438136,119.246943 C199.465164,119.048175 199.476806,118.840002 199.449363,118.642944 C199.407783,118.338593 199.185329,118.151366 198.914642,118.122299 C198.744995,118.104345 198.526699,118.199669 198.389901,118.317647 C198.247697,118.439901 198.125867,118.638242 198.081376,118.824614 C197.614431,120.784513 196.554968,122.453313 195.581993,124.157164 C194.236875,126.513746 192.7745,128.79253 191.241856,131.029422 C190.250169,132.477226 189.359522,134.001117 188.323345,135.422418 C188.088001,135.745577 187.917522,136.122169 187.741222,136.486791 C187.603592,136.771906 187.806087,137.20364 188.113365,137.32974 C188.297565,137.4054 188.482181,137.51312 188.673865,137.531928" id="FIll-104" transform="translate(199.697266, 118.620114) rotate(-113.000000) translate(-199.697266, -118.620114) "></path>
            </g>
        </g>
    </g>
</svg>