<?xml version="1.0" encoding="UTF-8"?>
<svg width="41px" height="35px" viewBox="0 0 41 35" version="1.1" xmlns="http://www.w3.org/2000/svg" xmlns:xlink="http://www.w3.org/1999/xlink">
    <!-- Generator: Sketch 52.2 (67145) - http://www.bohemiancoding.com/sketch -->
    <title>79</title>
    <desc>Created with Sketch.</desc>
    <g id="Page-1" stroke="none" stroke-width="1" fill="none" fill-rule="evenodd">
        <g id="Desktop-HD" transform="translate(-699.000000, -907.000000)" fill="#FAF5F5" fill-rule="nonzero">
            <g id="hero-text" transform="translate(326.000000, 761.000000)">
                <path d="M374.791256,162.83074 L383.370125,167.720594 L386.076987,169.264352 L386.076987,177.948386 C386.076987,180.076563 386.939338,180.71188 387.45274,180.901385 C387.597604,180.955464 387.787112,181 388.015797,181 C388.596164,181 389.428449,180.71188 390.424276,179.55304 L394.931006,174.310989 L402.092667,178.392836 C402.529537,178.641873 403.000573,178.768663 403.461131,178.768663 C403.771814,178.768663 404.076576,178.710949 404.362659,178.59461 C405.073769,178.306036 405.614959,177.676627 405.847288,176.867256 L410.532593,160.506697 L413.860367,148.889204 C414.243482,147.549948 413.751491,146.825559 413.423953,146.512899 C413.095958,146.200239 412.349772,145.741248 411.024584,146.182062 L389.050345,153.489575 L375.263203,158.074494 C373.429169,158.684817 373.063365,159.700961 373.008699,160.253115 C372.954034,160.805269 373.112564,161.874129 374.791256,162.83074 Z M389.323218,178.611425 C388.553798,179.508504 388.07684,179.592122 387.95612,179.545768 C387.836767,179.501233 387.526995,179.12904 387.526995,177.94884 L387.526995,170.090537 L393.64864,173.580238 L389.323218,178.611425 Z M412.430404,148.6129 L409.137252,160.109964 L404.452402,176.471432 C404.34216,176.854986 404.116208,177.134016 403.816003,177.255808 C403.516708,177.3776 403.160014,177.336245 402.811521,177.137652 L387.716502,168.531782 L412.430404,148.6129 Z M375.722395,159.446471 L389.509081,154.861552 L411.402233,147.581759 L386.365349,167.761949 L384.089889,166.464501 L375.511477,161.575557 C374.689669,161.107022 374.425452,160.658936 374.451873,160.395357 C374.47784,160.132686 374.825422,159.744134 375.722395,159.446471 Z" id="79"></path>
            </g>
        </g>
    </g>
</svg>