<?xml version="1.0" encoding="UTF-8"?>
<svg width="99px" height="85px" viewBox="0 0 99 85" version="1.1" xmlns="http://www.w3.org/2000/svg" xmlns:xlink="http://www.w3.org/1999/xlink">
    <!-- Generator: Sketch 52.2 (67145) - http://www.bohemiancoding.com/sketch -->
    <title>Fill 12</title>
    <desc>Created with Sketch.</desc>
    <g id="Page-1" stroke="none" stroke-width="1" fill="none" fill-rule="evenodd" stroke-linecap="square">
        <g id="Desktop-HD" transform="translate(-908.000000, -102.000000)" fill="#453737" stroke="#453737">
            <g id="CTA-button" transform="translate(897.000000, 48.000000)">
                <path d="M82.0077596,117.681351 C81.8784993,117.586161 81.8253149,117.289082 81.8320407,117.083074 C81.8964976,114.990356 82.7654886,113.452312 84.6060173,112.582539 C84.9894743,112.40051 85.333765,112.124253 85.7203838,111.952908 C85.8515042,111.894418 86.0680262,112.000432 86.2235548,112.081233 C86.2884121,112.115019 86.3291178,112.277987 86.3241042,112.379898 C86.2220284,114.406041 85.6134749,116.099082 83.6903904,116.955992 C83.3044389,117.127349 82.9601482,117.403607 82.6236018,117.614839 M14.5830893,87.119025 C15.4686514,84.8169678 16.4291032,82.5474657 17.3729895,80.2705731 C17.3966203,80.2136337 17.5710555,80.1594879 17.6152272,80.1928907 C17.7754301,80.3141543 17.9627817,80.4486714 18.0392873,80.6264702 C18.1235557,80.8192883 18.1631582,81.089907 18.1051687,81.2878819 C17.2455995,84.2010267 16.3700856,87.1096259 15.473347,90.0100401 C15.4310508,90.1466783 15.1221855,90.2982128 14.9772668,90.2622354 C14.8277005,90.2247551 14.6694426,89.9852314 14.6170521,89.8022125 C14.5262406,89.4796433 14.5152543,89.1330519 14.4427219,88.5919381 M16.3338596,108.8726 C17.2293526,106.616061 18.1619569,104.375795 19.0899019,102.134733 C19.1281395,102.041938 19.235273,101.980879 19.3106102,101.905063 C19.4932172,101.719313 19.7249832,101.710148 19.8356082,101.964373 C20.0060652,102.355004 20.2895931,102.851149 20.1879263,103.18857 C19.4848135,105.517383 18.6953974,107.817679 17.9272293,110.124744 C17.8956062,110.221204 17.7930038,110.290848 17.724223,110.373868 C17.4845664,110.659856 17.155909,110.716104 16.8761439,110.559333 C16.6281284,110.42015 16.4539342,110.134996 16.3004356,109.971355 M96.2649321,104.706209 C96.3879318,104.410976 96.6012234,104.104666 96.851683,103.932924 C97.6495928,103.388808 98.481948,102.901292 99.3090816,102.406594 C99.3872893,102.359166 99.5734126,102.365448 99.612529,102.422133 C99.7286253,102.587206 99.8892227,102.806231 99.8643956,102.976485 C99.7674034,103.638422 99.5585419,104.284119 99.4775294,104.948476 C99.3145926,106.29205 98.6702948,107.2364 97.5377804,107.833111 C97.1580242,108.033626 96.8020952,108.287001 96.4152901,108.469676 C96.2350043,108.554881 95.9663667,108.614366 95.8142327,108.530086 C95.6706918,108.450924 95.6293204,108.166106 95.5269739,107.936118 M89.2949927,109.786374 C89.3491416,109.578411 89.4503144,109.352194 89.5942111,109.206812 C90.5865639,108.20374 91.6571844,107.311913 92.9308585,106.736234 C93.0001237,106.704933 93.131627,106.744912 93.1934424,106.801309 C93.2677614,106.868563 93.3543427,107.001922 93.3376209,107.085199 C93.1623997,107.958194 92.9426224,108.821155 92.7847037,109.697304 C92.5944316,110.754902 92.0914197,111.550281 91.2010731,112.073558 C90.5567513,112.451221 89.929208,112.863904 89.271386,113.210148 C89.1562452,113.271059 88.9133899,113.102221 88.7515379,113.000052 C88.6815055,112.956254 88.6685459,112.8108 88.5935611,112.621695 M18.8917743,95.3506435 C18.0221235,97.5375328 17.1034437,99.7022631 16.1774938,101.862609 C16.1226476,101.991222 15.8452855,102.013002 15.6719054,102.084168 C15.6335926,101.978621 15.5632506,101.872481 15.5629843,101.76693 C15.5604505,100.86585 15.3899113,99.9120721 15.6105922,99.075337 C16.3850995,96.1393657 17.2904545,93.242653 18.1705578,90.3390973 C18.2143748,90.1911534 18.4831987,90.1203386 18.6478194,90.0135923 C18.6888245,90.1177724 18.7579018,90.2196391 18.768154,90.3267913 C18.8757965,91.4522439 18.9740854,92.5782315 19.1184686,94.1888827 M70.7337831,101.098775 C71.5018094,101.154087 71.8888349,101.647899 71.724097,102.451669 C71.474544,103.664009 71.2043636,104.872424 70.8963349,106.068804 C70.6154214,107.158725 70.187515,107.486561 69.0597207,107.552798 C68.6381339,107.577573 68.2022397,107.579415 67.7925023,107.492489 C67.4818745,107.426524 67.2179042,107.161666 67.3019239,106.760874 C67.6242761,105.221205 67.930028,103.676269 68.3155036,102.154061 C68.4982647,101.431378 69.0677851,101.096956 69.7775768,101.081062 C69.989922,101.075787 70.2019876,101.087507 70.4155042,101.092171 M65.9137309,102.936226 C65.6423441,104.136827 65.3529526,105.336386 64.9912589,106.508397 C64.870737,106.896471 64.5576621,107.385106 64.2300165,107.501583 C63.2262893,107.857004 62.1656987,108.017281 61.1082442,107.743391 C60.9553881,107.703017 60.7485439,107.414424 60.7533061,107.246631 C60.8025559,105.429184 61.3910911,103.735773 61.8990723,102.029535 C61.9802699,101.759738 62.312092,101.470498 62.5817579,101.389074 C63.1868437,101.205484 63.8246013,101.145753 64.0970444,101.098381 M102.885143,100.395219 C103.018976,100.009517 103.366713,99.6454861 103.703608,99.4130095 C105.569751,98.1222371 107.45931,96.8687331 109.354676,95.6273789 C109.485584,95.5412589 109.802109,95.5733315 109.898428,95.6827864 C110.001292,95.8001545 110.006421,96.0970523 109.948734,96.2766154 C109.60417,97.3405642 109.241015,98.3985018 108.857981,99.4475708 C108.584707,100.194787 108.143855,100.822727 107.533093,101.310807 C106.003181,102.531305 104.431131,103.675936 102.674699,104.505474 C102.421765,104.624751 102.039319,104.298905 102.037495,104.328622 M72.5674726,108.314802 C73.0993769,106.128031 73.6279565,103.940491 74.1817878,101.759793 C74.2296168,101.570839 74.4245493,101.366192 74.5994853,101.281596 C75.302554,100.943982 76.0911358,100.845252 76.7482581,101.231438 C77.3610691,101.59272 76.8869962,102.251921 76.7706978,102.748452 C76.1269014,105.488504 75.4565305,108.22098 74.7762087,110.94973 C74.5060415,112.035599 74.1900303,113.108577 73.8813242,114.183816 C73.8586901,114.261316 73.7321008,114.328391 73.6415178,114.357172 C73.3879015,114.436769 73.2397445,114.313603 73.1998473,114.020312 C72.9994615,112.568004 72.7950486,111.117038 72.6000126,109.664121 C72.5554528,109.329659 72.5450173,108.990161 72.5257742,108.739753 M33.9027132,102.290123 C34.9710801,102.306372 35.31743,102.716553 35.0609277,103.702088 C34.8343146,104.57484 34.6129814,105.451231 34.3286414,106.303079 C33.3816174,109.135976 34.0189703,108.857355 30.8261042,109.241643 C29.027688,109.45838 28.66852,109.056462 29.0726557,107.251964 C29.3435149,106.042853 29.649635,104.84077 29.9902787,103.649952 C30.185768,102.965048 30.603101,102.468426 31.3468506,102.417034 C31.8794382,102.380148 32.410796,102.336864 33.2000718,102.277107 M26.8863054,102.971931 C27.2890721,102.995684 27.671916,103.459668 27.5764511,103.906999 C27.2272632,105.536133 26.8640857,107.163592 26.4517628,108.775973 C26.3804695,109.052329 26.0793571,109.381805 25.8210116,109.464856 C24.4064973,109.918922 22.9570114,110.18604 21.471968,109.977191 C21.3460975,109.959984 21.1347653,109.619598 21.1670523,109.482775 C21.4442116,108.296448 21.7194506,107.105127 22.0888954,105.948844 C22.9072869,103.388408 23.1572888,103.203907 25.6262091,102.965589 C25.8361414,102.944685 26.0471053,102.942218 25.8640621,102.951578 M74.6883094,121.650709 C75.6739506,117.525063 76.6635839,113.400199 77.6552189,109.275372 C77.6802974,109.170999 77.7254524,109.063456 77.7882278,108.980324 C77.8366759,108.916053 77.9387158,108.840023 77.9978704,108.855286 C78.0909396,108.878261 78.1810286,108.960683 78.2491208,109.041281 C78.3185359,109.122611 78.3862786,109.224453 78.4092673,109.3283 C78.813637,111.161942 78.7111236,113.133533 79.7865463,114.790474 C79.9369249,115.022059 79.8818577,115.44818 79.8378328,115.771085 C79.4592978,118.535176 78.6583069,121.01164 75.9078356,122.13515 C75.6155323,122.253699 75.360347,122.469271 75.0749877,122.612033 C74.9942158,122.653038 74.8518497,122.624191 74.7692672,122.572368 C74.687352,122.520557 74.6453151,122.397941 74.5854166,122.306161 M56.9134826,101.269907 C57.6434542,101.366307 58.3764792,101.439388 59.0984003,101.578849 C59.2414569,101.606291 59.4594818,101.905008 59.4410911,102.049172 C59.3415914,102.822983 59.2001115,103.592475 59.0327244,104.354402 C58.0904347,108.644483 58.3304185,107.932777 54.3816434,108.133764 C54.1705397,108.144729 53.957256,108.125903 53.7452021,108.113474 C52.9849735,108.071058 52.5240084,107.568083 52.6625047,106.817663 C52.9059023,105.49258 53.1839284,104.172389 53.5044505,102.865736 C53.7900165,101.695857 54.1400798,101.433873 55.3103001,101.385423 C55.8399856,101.36265 56.3720292,101.399424 56.9025135,101.40925 M44.9222718,105.730746 C45.0659718,105.191513 45.1279928,104.626683 45.2915712,104.096318 C45.9654539,101.921386 45.5937411,101.714035 48.3050223,101.471706 C48.9353582,101.416797 49.5731808,101.434279 50.2063091,101.45309 C51.0195786,101.476656 51.4165749,101.932402 51.2646317,102.729325 C51.0146894,104.046494 50.7407718,105.360386 50.4170415,106.659188 C50.0467817,108.149093 49.6872951,108.415861 48.1804649,108.476493 C47.7590178,108.492771 47.3349682,108.464373 46.9125826,108.456549 M42.6600674,101.923201 C43.1116151,101.943607 43.4823281,102.374074 43.3861344,102.784557 C43.0280754,104.303731 42.6381036,105.815231 42.2893398,107.33741 C42.1174914,108.086505 41.6960082,108.510797 40.9913717,108.578497 C39.7318363,108.700379 38.4703573,108.818683 37.207176,108.878162 C36.3628075,108.91919 35.9756771,108.43175 36.1872326,107.662849 C36.6011098,106.158876 37.0309318,104.659448 37.4826458,103.168218 C37.692276,102.475784 38.1606432,102.041735 38.8664163,101.986098 C39.6022634,101.928185 40.3415085,101.907169 40.7737368,101.884716 M21.2529997,81.0444314 C21.079294,78.903384 20.9082575,76.762386 20.7305249,74.6226806 C20.6184858,73.2775551 20.8085659,73.0026908 22.0005715,72.8065969 C25.2800535,72.2694908 28.5856746,72.1316754 31.8911994,72.2432009 C36.2727606,72.3916597 40.6286968,71.9878315 44.9882823,71.6867831 C47.0177109,71.5472865 49.0261263,71.5490727 51.0534602,71.6992564 C53.3901422,71.8714629 55.7428587,72.0021732 58.0810763,71.9186902 C63.6424091,71.7220728 69.1584459,72.0473859 74.6397021,73.0669556 C75.3736807,73.2038065 76.1232911,73.242485 76.8662088,73.3228327 C77.078088,73.3458833 77.2914416,73.3604608 77.5042444,73.3679446 C78.7743881,73.4127237 79.3603789,72.9291436 79.3661249,71.6464105 C79.3741053,70.0654994 79.2506091,68.4835695 79.2178973,66.9011962 C79.1922032,65.6632158 79.2079151,64.4238773 79.243622,63.1863259 C79.2464241,63.0971245 79.6295168,62.8966715 79.7200251,62.9536002 C80.3555384,63.3549704 80.9921999,63.7676956 81.5695621,64.2551168 C90.5060786,71.7847658 99.4337342,79.3255845 108.360044,86.8670866 C108.692499,87.1480886 109.020027,87.4445833 109.298847,87.7805522 C109.49912,88.0222709 109.678749,88.3422352 109.34468,88.6463084 C109.103426,88.8670978 108.867347,89.0979001 108.606564,89.2885766 C101.417729,94.5694033 94.2263054,99.8452235 87.0335593,105.120311 C85.7181019,106.085522 84.398734,107.044993 83.0735237,107.99444 C82.655425,108.294123 82.2570868,108.731594 81.6718939,108.395617 C81.3591021,106.391539 81.0476333,104.388195 80.7328164,102.385497 C80.5933048,101.493213 80.4484316,100.602247 80.2982086,99.711889 C80.2422818,99.3786323 80.1836976,99.044618 80.0915516,98.7220241 C79.7431323,97.5042748 78.9770771,96.8015586 77.7874374,96.7320615 C76.5104661,96.6559881 75.2286758,96.6294106 73.9500622,96.6531855 C66.4880682,96.7898022 59.0254419,96.9242821 51.5640021,97.1083692 C46.8737371,97.2233687 42.1758341,97.2751826 37.5002578,97.6334216 C33.5698704,97.9339202 29.6059622,97.7563634 25.7059456,98.5235253 C25.0831777,98.6458691 24.4314356,98.6224624 23.7925847,98.6269205 C23.2591867,98.6319153 22.7786295,98.1838304 22.6841085,97.5998078 C22.5581039,96.8196946 22.4341594,96.0360779 22.3690167,95.2485918 C21.9776212,90.5158737 21.6036215,85.7806444 21.2229257,81.0467078 M76.1351253,67.490823 C76.1285422,68.7027046 75.7495449,69.0194044 74.5187787,68.9342699 C74.0934061,68.9051395 73.6660667,68.8738475 73.2446944,68.8044147 C65.3045181,67.4963282 57.309086,67.4374732 49.30358,67.5852726 C47.9168095,67.6105858 46.5288641,67.5855837 45.141834,67.5860995 C37.8842376,67.5919141 30.6398157,67.9330269 23.3997987,68.452728 C21.9095722,68.5590029 20.4152771,68.5879912 18.9222966,68.658797 C18.1013294,68.6974246 17.5221095,69.094002 17.2060082,69.9289695 C16.8089387,70.9791952 16.3813843,72.0161058 15.9624345,73.0574259 C14.706299,76.178566 13.5156881,79.3335044 12.1668445,82.4097172 C11.2715675,84.4502097 11.0460807,86.4719416 11.401595,88.6786926 C11.7594639,90.9046129 11.936551,93.1647274 12.1317943,95.416678 C12.4049619,98.5718139 12.6112738,101.733503 12.8650555,104.890405 C13.0373916,107.033553 13.2237639,109.175543 13.4435814,111.313194 C13.5119805,111.983861 13.6705201,112.652656 13.8554445,113.299981 C14.3566323,115.050413 15.1818368,115.565801 16.9996323,115.266545 C23.8504952,114.138947 30.7515094,113.574006 37.667966,113.165899 C39.7979668,113.039599 41.9311759,112.921151 44.0522242,112.689848 C48.3070339,112.225353 52.5737271,112.336974 56.8379008,112.277125 C59.8235541,112.235387 62.8076879,112.083116 65.7923061,111.982564 C66.6451394,111.954444 67.4988381,111.914297 68.3525285,111.915236 C69.5025709,111.916705 69.956675,112.268672 70.0872644,113.419342 C70.3690026,115.891069 70.5825273,118.370742 70.8375162,120.845516 C71.0228413,122.645349 71.2235488,124.443342 71.4289272,126.241422 C71.5230457,127.052821 71.8735044,127.740755 72.3807662,128.35084 C72.8114593,128.868129 73.5853531,129.094264 74.1225297,128.77837 C74.6805899,128.45082 75.2082782,128.062496 75.7501806,127.702771 C78.2815634,126.020556 80.8129463,124.338342 83.3449731,122.657556 C88.6810022,119.114724 94.0098892,115.559717 99.3576148,112.036227 C101.622876,110.544591 103.930334,109.12528 106.215734,107.667309 C107.037363,107.14205 107.858371,106.613947 108.667683,106.066501 C110.340317,104.934358 111.519813,103.388607 112.249752,101.417305 C113.423247,98.2478821 114.226195,94.962508 115.078301,91.6915033 C115.520023,89.9960806 115.046993,88.5628067 113.838718,87.3942984 C113.365629,86.9385599 112.868075,86.5092858 112.367736,86.0870437 C103.346434,78.4771962 94.3264663,70.8673733 85.2983282,63.2673162 C83.0414576,61.367482 80.765484,59.492795 78.484044,57.6257986 C77.9815282,57.2141416 77.4013921,56.7330442 76.742861,57.0006476 C75.9190271,57.3353165 75.8503336,58.1840757 75.8715211,59.0061655 C75.907925,60.3640571 75.9510134,61.7213642 75.9907537,63.0793176 C76.0181353,63.0784081 76.0448497,63.0774863 76.071564,63.0765644" id="Fill-12" transform="translate(63.240898, 92.923384) rotate(-34.000000) translate(-63.240898, -92.923384) "></path>
            </g>
        </g>
    </g>
</svg>