<?xml version="1.0" encoding="UTF-8"?>
<svg width="1083px" height="290px" viewBox="0 0 1083 290" version="1.1" xmlns="http://www.w3.org/2000/svg" xmlns:xlink="http://www.w3.org/1999/xlink">
    <!-- Generator: Sketch 52.2 (67145) - http://www.bohemiancoding.com/sketch -->
    <title>Capture human insigh</title>
    <desc>Created with Sketch.</desc>
    <g id="Page-1" stroke="none" stroke-width="1" fill="none" fill-rule="evenodd">
        <g id="Desktop-HD" transform="translate(-181.000000, -367.000000)" fill="#453737" stroke="#000000" stroke-width="1.29079251">
            <path d="M263.9266,414.663553 C257.489816,406.79141 249.538614,402.855398 240.072755,402.855398 C235.907777,402.855398 232.050497,403.614147 228.5008,405.131669 C224.951103,406.64919 221.898409,408.71204 219.342627,411.32028 C216.786845,413.92852 214.77538,417.034651 213.308172,420.638764 C211.840964,424.242878 211.107371,428.131468 211.107371,432.304652 C211.107371,436.572682 211.840964,440.508694 213.308172,444.112808 C214.77538,447.716921 216.81051,450.846762 219.413621,453.502425 C222.016732,456.158088 225.069426,458.244648 228.571794,459.76217 C232.074161,461.279691 235.860448,462.038441 239.930768,462.038441 C248.828675,462.038441 256.827206,458.244694 263.9266,450.657086 L263.9266,483.663014 L261.086857,484.658883 C256.82722,486.176404 252.851619,487.290817 249.159934,488.002156 C245.468249,488.713494 241.823948,489.069158 238.226922,489.069158 C230.843551,489.069158 223.767928,487.670213 216.999839,484.872283 C210.23175,482.074353 204.268348,478.13834 199.109455,473.064128 C193.950561,467.989915 189.80931,461.967342 186.685577,454.996228 C183.561843,448.025113 182,440.413909 182,432.162385 C182,423.910862 183.538179,416.347079 186.614583,409.47081 C189.690987,402.594541 193.808574,396.666811 198.967467,391.687444 C204.126361,386.708076 210.113427,382.819486 216.928845,380.021556 C223.744264,377.223625 230.89088,375.824681 238.368909,375.824681 C242.628545,375.824681 246.817125,376.275189 250.934774,377.176217 C255.052422,378.077245 259.382988,379.47619 263.9266,381.373091 L263.9266,414.663553 Z M296.493295,449.376684 C296.493295,451.747811 296.919253,453.952927 297.77118,455.992096 C298.623107,458.031266 299.782658,459.809585 301.249866,461.327106 C302.717074,462.844628 304.468231,464.030174 306.503391,464.883779 C308.538551,465.737385 310.73933,466.164182 313.105795,466.164182 C315.377601,466.164182 317.531052,465.737385 319.566211,464.883779 C321.601371,464.030174 323.352529,462.844628 324.819737,461.327106 C326.286945,459.809585 327.47016,458.054977 328.369416,456.06323 C329.268673,454.071483 329.718294,451.9375 329.718294,449.661218 C329.718294,447.384936 329.268673,445.227242 328.369416,443.188073 C327.47016,441.148903 326.286945,439.370584 324.819737,437.853063 C323.352529,436.335541 321.601371,435.149995 319.566211,434.296389 C317.531052,433.442784 315.377601,433.015987 313.105795,433.015987 C310.73933,433.015987 308.538551,433.442784 306.503391,434.296389 C304.468231,435.149995 302.717074,436.335541 301.249866,437.853063 C299.782658,439.370584 298.623107,441.101481 297.77118,443.045806 C296.919253,444.99013 296.493295,447.100402 296.493295,449.376684 Z M328.866371,413.098617 L354.708037,413.098617 L354.708037,486.081552 L328.866371,486.081552 L328.866371,477.972337 C323.376173,484.896029 315.945585,488.357823 306.574385,488.357823 C301.273504,488.357823 296.398659,487.385675 291.949706,485.441351 C287.500752,483.497026 283.619808,480.770271 280.306757,477.261002 C276.993707,473.751734 274.414299,469.626034 272.568456,464.883779 C270.722614,460.141525 269.799706,454.972545 269.799706,449.376684 C269.799706,444.160204 270.698949,439.204622 272.497463,434.50979 C274.295976,429.814958 276.804391,425.712969 280.022783,422.2037 C283.241175,418.694432 287.07479,415.920254 291.523744,413.881085 C295.972698,411.841915 300.894871,410.822346 306.29041,410.822346 C315.377635,410.822346 322.90288,413.999609 328.866371,420.35423 L328.866371,413.098617 Z M423.765436,449.803485 C423.765436,447.527203 423.363143,445.369509 422.558545,443.33034 C421.753947,441.29117 420.594397,439.512851 419.07986,437.99533 C417.565322,436.477808 415.7905,435.268551 413.75534,434.367523 C411.720181,433.466495 409.519402,433.015987 407.152937,433.015987 C404.881131,433.015987 402.751344,433.442784 400.763514,434.296389 C398.775684,435.149995 397.04819,436.335541 395.580982,437.853063 C394.113774,439.370584 392.930559,441.148903 392.031303,443.188073 C391.132046,445.227242 390.682424,447.384936 390.682424,449.661218 C390.682424,451.9375 391.108382,454.071483 391.960309,456.06323 C392.812236,458.054977 393.995451,459.785874 395.509988,461.255973 C397.024526,462.726072 398.799348,463.911618 400.834507,464.812646 C402.869667,465.713674 405.023118,466.164182 407.294924,466.164182 C409.56673,466.164182 411.696516,465.737385 413.684347,464.883779 C415.672177,464.030174 417.399671,462.844628 418.866879,461.327106 C420.334087,459.809585 421.517302,458.054977 422.416558,456.06323 C423.315815,454.071483 423.765436,451.984922 423.765436,449.803485 Z M391.39236,522.501886 L365.692682,522.501886 L365.692682,413.098617 L391.39236,413.098617 L391.39236,421.207832 C396.882559,414.28414 404.360475,410.822346 413.826334,410.822346 C419.032557,410.822346 423.883737,411.841915 428.38002,413.881085 C432.876303,415.920254 436.780911,418.694432 440.093962,422.2037 C443.407012,425.712969 445.98642,429.838669 447.832263,434.580923 C449.678105,439.323178 450.601013,444.397314 450.601013,449.803485 C450.601013,455.209655 449.678105,460.23637 447.832263,464.883779 C445.98642,469.531189 443.430677,473.609467 440.164955,477.118735 C436.899234,480.628004 433.041954,483.37847 428.593,485.370217 C424.144047,487.361964 419.316531,488.357823 414.110308,488.357823 C405.023084,488.357823 397.45051,485.227982 391.39236,478.968205 L391.39236,522.501886 Z M488.421233,434.580923 L488.421233,486.081552 L462.721554,486.081552 L462.721554,434.580923 L454.202324,434.580923 L454.202324,413.098617 L462.721554,413.098617 L462.721554,391.18951 L488.421233,391.18951 L488.421233,413.098617 L503.045912,413.098617 L503.045912,434.580923 L488.421233,434.580923 Z M531.92094,413.098617 L531.92094,454.21376 C531.92094,463.224044 536.27517,467.729118 544.983761,467.729118 C553.692351,467.729118 558.046581,463.224044 558.046581,454.21376 L558.046581,413.098617 L583.74626,413.098617 L583.74626,459.193102 C583.74626,469.056992 580.504251,476.454798 574.020138,481.386743 C567.536025,486.318688 557.857329,488.784624 544.983761,488.784624 C532.110192,488.784624 522.431497,486.318688 515.947383,481.386743 C509.46327,476.454798 506.221262,469.056992 506.221262,459.193102 L506.221262,413.098617 L531.92094,413.098617 Z M594.730904,413.098617 L620.430583,413.098617 L620.430583,425.049039 C623.175682,420.686165 626.536011,417.342925 630.511672,415.01922 C634.487333,412.695516 639.125534,411.533681 644.426415,411.533681 L646.627216,411.533681 C647.431815,411.533681 648.354722,411.628524 649.395966,411.818214 L649.395966,436.430393 C645.988257,434.723182 642.296628,433.869589 638.320967,433.869589 C632.357476,433.869589 627.884924,435.647907 624.903179,439.204599 C621.921433,442.76129 620.430583,447.953981 620.430583,454.782827 L620.430583,486.081552 L594.730904,486.081552 L594.730904,413.098617 Z M708.514263,438.991198 C707.662336,435.387085 705.911178,432.494353 703.260738,430.312915 C700.610297,428.131478 697.391953,427.040776 693.60561,427.040776 C689.629949,427.040776 686.387941,428.084056 683.879488,430.170648 C681.371036,432.257241 679.785528,435.197394 679.122918,438.991198 L708.514263,438.991198 Z M678.412982,453.929226 C678.412982,465.026102 683.619126,470.574457 694.031571,470.574457 C699.616428,470.574457 703.828672,468.298209 706.66843,463.745644 L731.516186,463.745644 C726.49928,480.438381 713.957205,488.784624 693.889584,488.784624 C687.736776,488.784624 682.104674,487.859898 676.99311,486.010419 C671.881546,484.160939 667.503652,481.529027 663.859296,478.114604 C660.214941,474.700181 657.39889,470.621903 655.41106,465.879648 C653.423229,461.137393 652.429329,455.826148 652.429329,449.945752 C652.429329,443.875666 653.375901,438.398444 655.269072,433.513921 C657.162244,428.629399 659.859974,424.479988 663.362341,421.065565 C666.864709,417.651142 671.100618,415.01923 676.070194,413.16975 C681.03977,411.320271 686.648207,410.395545 692.895674,410.395545 C699.048482,410.395545 704.585927,411.320271 709.508173,413.16975 C714.43042,415.01923 718.595336,417.698563 722.003045,421.207832 C725.410754,424.7171 728.013826,429.008776 729.81234,434.082989 C731.610853,439.157202 732.510096,444.871533 732.510096,451.226154 L732.510096,453.929226 L678.412982,453.929226 Z M782.450858,368 L808.150537,368 L808.150537,422.345967 C811.652905,418.077938 815.202548,415.208917 818.799575,413.738818 C822.396601,412.268719 826.608845,411.533681 831.436434,411.533681 C840.618317,411.533681 847.551955,414.070749 852.237555,419.144961 C856.923155,424.219174 859.26592,431.071629 859.26592,439.702533 L859.26592,486.081552 L833.566241,486.081552 L833.566241,449.234417 C833.566241,445.535458 833.28227,442.547883 832.714318,440.271601 C832.146367,437.995318 831.199795,436.24071 829.874575,435.007724 C827.602768,433.015977 824.857711,432.020119 821.639318,432.020119 C817.285023,432.020119 813.948358,433.324219 811.629223,435.932459 C809.310087,438.540699 808.150537,442.263313 808.150537,447.100413 L808.150537,486.081552 L782.450858,486.081552 L782.450858,368 Z M895.950243,413.098617 L895.950243,454.21376 C895.950243,463.224044 900.304473,467.729118 909.013063,467.729118 C917.721653,467.729118 922.075883,463.224044 922.075883,454.21376 L922.075883,413.098617 L947.775562,413.098617 L947.775562,459.193102 C947.775562,469.056992 944.533554,476.454798 938.049441,481.386743 C931.565327,486.318688 921.886631,488.784624 909.013063,488.784624 C896.139495,488.784624 886.460799,486.318688 879.976686,481.386743 C873.492572,476.454798 870.250564,469.056992 870.250564,459.193102 L870.250564,413.098617 L895.950243,413.098617 Z M958.760206,413.098617 L984.459885,413.098617 L984.459885,422.061433 C991.464621,415.327432 999.321166,411.960481 1008.02976,411.960481 C1018.82084,411.960481 1027.05601,416.512978 1032.73552,425.618107 C1038.5097,416.418133 1046.74487,411.818214 1057.44129,411.818214 C1060.849,411.818214 1064.06735,412.316144 1067.09642,413.312017 C1070.1255,414.307891 1072.72857,415.872811 1074.90572,418.006826 C1077.08286,420.140841 1078.81036,422.915018 1080.08825,426.329441 C1081.36614,429.743865 1082.00507,433.869564 1082.00507,438.706664 L1082.00507,486.081552 L1056.3054,486.081552 L1056.3054,450.088019 C1056.3054,446.38906 1056.04509,443.354063 1055.52447,440.982935 C1055.00384,438.611808 1054.24659,436.762356 1053.25267,435.434525 C1052.25876,434.106694 1051.09921,433.205679 1049.77399,432.731453 C1048.44877,432.257228 1047.02891,432.020119 1045.51437,432.020119 C1037.27907,432.020119 1033.16149,438.042692 1033.16149,450.088019 L1033.16149,486.081552 L1007.46181,486.081552 L1007.46181,450.088019 C1007.46181,446.38906 1007.22516,443.330352 1006.75187,440.911802 C1006.27858,438.493252 1005.59231,436.572667 1004.69306,435.149991 C1003.7938,433.727315 1002.63425,432.755167 1001.21437,432.233519 C999.794493,431.711871 998.137993,431.451051 996.244821,431.451051 C994.635625,431.451051 993.12111,431.68816 991.701231,432.162385 C990.281352,432.636611 989.027145,433.561337 987.938571,434.936591 C986.849997,436.311844 985.998083,438.208718 985.382802,440.627268 C984.767521,443.045818 984.459885,446.19937 984.459885,450.088019 L984.459885,486.081552 L958.760206,486.081552 L958.760206,413.098617 Z M1116.98555,449.376684 C1116.98555,451.747811 1117.41151,453.952927 1118.26344,455.992096 C1119.11536,458.031266 1120.27491,459.809585 1121.74212,461.327106 C1123.20933,462.844628 1124.96049,464.030174 1126.99565,464.883779 C1129.03081,465.737385 1131.23159,466.164182 1133.59805,466.164182 C1135.86986,466.164182 1138.02331,465.737385 1140.05847,464.883779 C1142.09363,464.030174 1143.84479,462.844628 1145.31199,461.327106 C1146.7792,459.809585 1147.96242,458.054977 1148.86167,456.06323 C1149.76093,454.071483 1150.21055,451.9375 1150.21055,449.661218 C1150.21055,447.384936 1149.76093,445.227242 1148.86167,443.188073 C1147.96242,441.148903 1146.7792,439.370584 1145.31199,437.853063 C1143.84479,436.335541 1142.09363,435.149995 1140.05847,434.296389 C1138.02331,433.442784 1135.86986,433.015987 1133.59805,433.015987 C1131.23159,433.015987 1129.03081,433.442784 1126.99565,434.296389 C1124.96049,435.149995 1123.20933,436.335541 1121.74212,437.853063 C1120.27491,439.370584 1119.11536,441.101481 1118.26344,443.045806 C1117.41151,444.99013 1116.98555,447.100402 1116.98555,449.376684 Z M1149.35863,413.098617 L1175.20029,413.098617 L1175.20029,486.081552 L1149.35863,486.081552 L1149.35863,477.972337 C1143.86843,484.896029 1136.43784,488.357823 1127.06664,488.357823 C1121.76576,488.357823 1116.89092,487.385675 1112.44196,485.441351 C1107.99301,483.497026 1104.11206,480.770271 1100.79901,477.261002 C1097.48596,473.751734 1094.90656,469.626034 1093.06071,464.883779 C1091.21487,460.141525 1090.29196,454.972545 1090.29196,449.376684 C1090.29196,444.160204 1091.19121,439.204622 1092.98972,434.50979 C1094.78823,429.814958 1097.29665,425.712969 1100.51504,422.2037 C1103.73343,418.694432 1107.56705,415.920254 1112.016,413.881085 C1116.46495,411.841915 1121.38713,410.822346 1126.78267,410.822346 C1135.86989,410.822346 1143.39514,413.999609 1149.35863,420.35423 L1149.35863,413.098617 Z M1186.18494,413.098617 L1211.88462,413.098617 L1211.88462,422.345967 C1215.38698,418.077938 1218.93663,415.208917 1222.53365,413.738818 C1226.13068,412.268719 1230.34293,411.533681 1235.17051,411.533681 C1240.28208,411.533681 1244.65997,412.363563 1248.30433,414.023352 C1251.94868,415.683141 1255.04871,418.030522 1257.60449,421.065565 C1259.68698,423.531537 1261.10683,426.282004 1261.8641,429.317047 C1262.62137,432.35209 1263,435.813884 1263,439.702533 L1263,486.081552 L1237.30032,486.081552 L1237.30032,449.234417 C1237.30032,445.630304 1237.04001,442.713861 1236.51939,440.485001 C1235.99877,438.256141 1235.07586,436.477822 1233.75064,435.149991 C1232.61474,434.01185 1231.33687,433.205679 1229.91699,432.731453 C1228.49711,432.257228 1226.98259,432.020119 1225.3734,432.020119 C1221.0191,432.020119 1217.68244,433.324219 1215.3633,435.932459 C1213.04417,438.540699 1211.88462,442.263313 1211.88462,447.100413 L1211.88462,486.081552 L1186.18494,486.081552 L1186.18494,413.098617 Z M473.744922,546.312197 L473.744922,619.295132 L448.045243,619.295132 L448.045243,546.312197 L473.744922,546.312197 Z M484.871554,546.312197 L510.571232,546.312197 L510.571232,555.559547 C514.0736,551.291518 517.623244,548.422497 521.220271,546.952398 C524.817297,545.482299 529.029541,544.747261 533.857129,544.747261 C538.968693,544.747261 543.346587,545.577143 546.990943,547.236932 C550.635299,548.896721 553.735321,551.244102 556.291103,554.279145 C558.373592,556.745117 559.793449,559.495584 560.550718,562.530627 C561.307987,565.56567 561.686616,569.027464 561.686616,572.916113 L561.686616,619.295132 L535.986937,619.295132 L535.986937,582.447997 C535.986937,578.843884 535.72663,575.927441 535.206007,573.698581 C534.685385,571.469721 533.762478,569.691402 532.437257,568.363571 C531.301354,567.22543 530.023483,566.419259 528.603604,565.945033 C527.183725,565.470808 525.66921,565.233699 524.060014,565.233699 C519.705719,565.233699 516.369054,566.537799 514.049918,569.146039 C511.730783,571.754279 510.571232,575.476893 510.571232,580.313993 L510.571232,619.295132 L484.871554,619.295132 L484.871554,546.312197 Z M620.9469,565.091432 C616.21397,562.625459 611.575769,561.392491 607.032156,561.392491 C604.665692,561.392491 602.748884,561.86671 601.281676,562.815161 C599.814468,563.763612 599.080875,565.044001 599.080875,566.656368 C599.080875,567.509974 599.199196,568.19759 599.435842,568.719238 C599.672489,569.240886 600.193103,569.738816 600.997701,570.213041 C601.802299,570.687267 602.985514,571.114063 604.547381,571.493444 C606.109248,571.872824 608.168041,572.347042 610.723823,572.916113 C617.823217,574.338789 623.124019,576.875857 626.626387,580.527394 C630.128754,584.17893 631.879912,588.849981 631.879912,594.540686 C631.879912,598.808715 631.027998,602.649884 629.324143,606.064308 C627.620288,609.478731 625.253859,612.347752 622.224784,614.671457 C619.195709,616.995162 615.551408,618.797191 611.291772,620.0776 C607.032135,621.358009 602.346605,621.998204 597.235041,621.998204 C587.390548,621.998204 577.688188,619.200315 568.12767,613.604455 L577.498824,595.394288 C584.692877,600.326233 591.508193,602.792168 597.944977,602.792168 C600.311442,602.792168 602.251914,602.270528 603.766451,601.227232 C605.280989,600.183936 606.038246,598.856124 606.038246,597.243758 C606.038246,596.295307 605.919925,595.512847 605.683278,594.896354 C605.446632,594.27986 604.949682,593.710798 604.192413,593.18915 C603.435144,592.667502 602.322922,592.193284 600.855714,591.766481 C599.388506,591.339678 597.471698,590.889171 595.105234,590.414945 C587.153912,588.802579 581.592803,586.407776 578.42174,583.230465 C575.250678,580.053155 573.66517,575.666635 573.66517,570.070774 C573.66517,565.992435 574.422427,562.317243 575.936965,559.045087 C577.451502,555.772931 579.628617,552.998754 582.468375,550.722472 C585.308133,548.446189 588.739455,546.691582 592.762445,545.458595 C596.785435,544.225609 601.257987,543.609125 606.180233,543.609125 C614.226213,543.609125 622.03543,545.174046 629.608117,548.303934 L620.9469,565.091432 Z M664.162633,546.312197 L664.162633,619.295132 L638.462954,619.295132 L638.462954,546.312197 L664.162633,546.312197 Z M637.22583,518.902588 C637.22583,516.910841 637.137736,514.956539 637.895005,513.201904 C638.652274,511.44727 640.021215,509.736767 641.346436,508.408936 C641.417904,508.337326 643.976563,505.630361 645.633306,504.91252 C647.38449,504.153759 649.253969,503.774385 651.2418,503.774385 C653.22963,503.774385 655.220252,504.699247 656.971436,505.458008 C658.722619,506.216769 660.139656,506.714561 661.464876,508.042393 C662.790097,509.370224 664.082819,510.245366 664.840088,512 C665.597357,513.754634 665.724492,516.293865 665.724492,518.285612 C665.724492,520.277359 664.773626,522.150521 664.016357,523.905155 C663.259089,525.65979 661.956812,527.200999 660.631592,528.528831 C659.306372,529.856662 658.282922,530.531767 656.531738,531.290527 C654.780554,532.049288 653.22963,532.796839 651.2418,532.796839 C649.253969,532.796839 647.38449,532.417464 645.633306,531.658703 C643.882122,530.899942 642.343943,529.856662 641.018723,528.528831 C639.693503,527.200999 638.652274,526.350093 637.895005,524.595459 C637.137736,522.840825 637.22583,520.894335 637.22583,518.902588 Z M699.14311,582.447997 C699.14311,584.819124 699.569067,587.02424 700.420994,589.063409 C701.272922,591.102579 702.432472,592.880898 703.89968,594.398419 C705.366888,595.915941 707.118046,597.101487 709.153205,597.955093 C711.188365,598.808698 713.389144,599.235495 715.755609,599.235495 C718.027415,599.235495 720.180866,598.808698 722.216026,597.955093 C724.251185,597.101487 726.002343,595.915941 727.469551,594.398419 C728.936759,592.880898 730.119974,591.102579 731.019231,589.063409 C731.918487,587.02424 732.368109,584.866546 732.368109,582.590264 C732.368109,580.219137 731.918487,578.037732 731.019231,576.045985 C730.119974,574.054238 728.913095,572.29963 727.398558,570.782109 C725.88402,569.264587 724.109198,568.079041 722.074038,567.225436 C720.038879,566.37183 717.932757,565.945033 715.755609,565.945033 C713.483803,565.945033 711.354017,566.395541 709.366186,567.296569 C707.378356,568.197597 705.627198,569.383143 704.112661,570.853242 C702.598123,572.323341 701.391244,574.054238 700.491988,576.045985 C699.592731,578.037732 699.14311,580.171715 699.14311,582.447997 Z M756.789903,546.312197 L756.789903,614.315789 C756.789903,618.394129 756.55326,622.04561 756.079967,625.270343 C755.606674,628.495076 754.944074,631.340386 754.092147,633.806359 C752.956243,636.936247 751.181422,639.85269 748.767627,642.555775 C746.353833,645.25886 743.443125,647.606241 740.035416,649.597988 C736.627707,651.589735 732.770427,653.154656 728.463461,654.292797 C724.156496,655.430938 719.49463,656 714.477725,656 C708.798209,656 703.592065,655.288672 698.859135,653.865996 C694.126206,652.44332 689.984955,650.475313 686.435257,647.961918 C682.88556,645.448523 679.974852,642.50837 677.703046,639.141369 C675.43124,635.774368 673.916725,632.099176 673.159456,628.115682 L702.12484,628.115682 C703.923354,632.952782 707.993612,635.371295 714.335737,635.371295 C719.731277,635.371295 723.872528,633.853796 726.759615,630.818753 C729.646702,627.78371 731.090224,623.563167 731.090224,618.156997 L731.090224,611.185917 C729.197052,612.987974 727.374902,614.481762 725.623718,615.667325 C723.872534,616.852889 722.097712,617.825037 720.299199,618.583797 C718.500686,619.342558 716.607542,619.887909 714.619712,620.219867 C712.631881,620.551825 710.454766,620.717801 708.088302,620.717801 C702.882079,620.717801 698.101892,619.816786 693.747597,618.01473 C689.393302,616.212673 685.630679,613.699316 682.459616,610.474582 C679.288554,607.249849 676.827467,603.38497 675.076283,598.879828 C673.325099,594.374686 672.449521,589.371682 672.449521,583.870666 C672.449521,578.274806 673.396092,573.082115 675.289264,568.292438 C677.182436,563.50276 679.761844,559.329639 683.027565,555.772948 C686.293287,552.216257 690.174231,549.418368 694.670514,547.379199 C699.166797,545.340029 704.065305,544.32046 709.366186,544.32046 C717.980118,544.32046 725.221392,547.545145 731.090224,553.994611 L731.090224,546.312197 L756.789903,546.312197 Z M767.774547,501.21358 L793.474226,501.21358 L793.474226,555.559547 C796.976594,551.291518 800.526238,548.422497 804.123264,546.952398 C807.720291,545.482299 811.932535,544.747261 816.760123,544.747261 C825.942006,544.747261 832.875644,547.284329 837.561244,552.358541 C842.246844,557.432754 844.589609,564.285209 844.589609,572.916113 L844.589609,619.295132 L818.88993,619.295132 L818.88993,582.447997 C818.88993,578.749038 818.605959,575.761463 818.038007,573.485181 C817.470056,571.208898 816.523484,569.45429 815.198264,568.221304 C812.926458,566.229557 810.1814,565.233699 806.963008,565.233699 C802.608712,565.233699 799.272047,566.537799 796.952912,569.146039 C794.633776,571.754279 793.474226,575.476893 793.474226,580.313993 L793.474226,619.295132 L767.774547,619.295132 L767.774547,501.21358 Z M884.255663,567.794503 L884.255663,619.295132 L858.555984,619.295132 L858.555984,567.794503 L850.036754,567.794503 L850.036754,546.312197 L858.555984,546.312197 L858.555984,524.40309 L884.255663,524.40309 L884.255663,546.312197 L898.880342,546.312197 L898.880342,567.794503 L884.255663,567.794503 Z M951.041267,565.091432 C946.308338,562.625459 941.670136,561.392491 937.126524,561.392491 C934.760059,561.392491 932.843251,561.86671 931.376043,562.815161 C929.908835,563.763612 929.175242,565.044001 929.175242,566.656368 C929.175242,567.509974 929.293564,568.19759 929.53021,568.719238 C929.766857,569.240886 930.287471,569.738816 931.092069,570.213041 C931.896667,570.687267 933.079882,571.114063 934.641748,571.493444 C936.203615,571.872824 938.262409,572.347042 940.818191,572.916113 C947.917585,574.338789 953.218386,576.875857 956.720754,580.527394 C960.223122,584.17893 961.97428,588.849981 961.97428,594.540686 C961.97428,598.808715 961.122365,602.649884 959.418511,606.064308 C957.714656,609.478731 955.348227,612.347752 952.319152,614.671457 C949.290077,616.995162 945.645776,618.797191 941.386139,620.0776 C937.126503,621.358009 932.440973,621.998204 927.329409,621.998204 C917.484915,621.998204 907.782555,619.200315 898.222038,613.604455 L907.593191,595.394288 C914.787244,600.326233 921.602561,602.792168 928.039345,602.792168 C930.405809,602.792168 932.346281,602.270528 933.860819,601.227232 C935.375356,600.183936 936.132614,598.856124 936.132614,597.243758 C936.132614,596.295307 936.014292,595.512847 935.777646,594.896354 C935.540999,594.27986 935.044049,593.710798 934.28678,593.18915 C933.529512,592.667502 932.41729,592.193284 930.950082,591.766481 C929.482874,591.339678 927.566066,590.889171 925.199601,590.414945 C917.24828,588.802579 911.687171,586.407776 908.516108,583.230465 C905.345045,580.053155 903.759538,575.666635 903.759538,570.070774 C903.759538,565.992435 904.516795,562.317243 906.031332,559.045087 C907.54587,555.772931 909.722985,552.998754 912.562743,550.722472 C915.4025,548.446189 918.833823,546.691582 922.856813,545.458595 C926.879803,544.225609 931.352354,543.609125 936.274601,543.609125 C944.320581,543.609125 952.129798,545.174046 959.702485,548.303934 L951.041267,565.091432 Z M976.004657,604.994615 C976.004657,602.918018 976.465864,601.769948 977.247684,599.909663 C978.029504,598.049377 978.549575,597.026849 979.939477,595.642451 C981.329378,594.258053 983.798889,592.576718 985.66657,591.797994 C987.53425,591.01927 990.28528,591 992.370132,591 C994.454984,591 994.815683,591.01927 996.683363,591.797994 C998.551043,592.576718 1000.17981,593.658263 1001.56971,595.042662 C1002.95961,596.42706 1004.04546,598.049377 1004.82728,599.909663 C1005.6091,601.769948 1006,603.73836 1006,605.814957 C1006,607.891554 1005.6091,609.859966 1004.82728,611.720252 C1004.04546,613.580537 1002.95961,615.202854 1001.56971,616.587252 C1000.17981,617.971651 998.551043,619.053196 996.683363,619.83192 C994.815683,620.610644 992.839446,621 990.754594,621 C988.669742,621 986.693505,620.610644 984.825825,619.83192 C982.958145,619.053196 981.329378,617.971651 979.939477,616.587252 C978.549575,615.202854 977.463731,613.580537 976.681912,611.720252 C975.900092,609.859966 976.004657,607.071213 976.004657,604.994615 Z M447.003138,519.128203 C447.003138,517.136456 446.915045,515.182154 447.672313,513.42752 C448.429582,511.672885 449.798524,509.962382 451.123744,508.634551 C451.195212,508.562941 453.753871,505.855977 455.410615,505.138135 C457.161798,504.379375 459.031278,504 461.019108,504 C463.006938,504 464.99756,504.924862 466.748744,505.683623 C468.499928,506.442384 469.916964,506.940177 471.242185,508.268008 C472.567405,509.595839 473.860127,510.470981 474.617396,512.225615 C475.374665,513.980249 475.5018,516.51948 475.5018,518.511227 C475.5018,520.502974 474.550934,522.376136 473.793666,524.130771 C473.036397,525.885405 471.73412,527.426615 470.4089,528.754446 C469.08368,530.082277 468.060231,530.757382 466.309047,531.516143 C464.557863,532.274903 463.006938,533.022454 461.019108,533.022454 C459.031278,533.022454 457.161798,532.643079 455.410615,531.884318 C453.659431,531.125558 452.121252,530.082277 450.796031,528.754446 C449.470811,527.426615 448.429582,526.575708 447.672313,524.821074 C446.915045,523.06644 447.003138,521.11995 447.003138,519.128203 Z" id="Capture-human-insigh"></path>
        </g>
    </g>
</svg>